<?xml version="1.0" standalone="no"?><!DOCTYPE svg PUBLIC "-//W3C//DTD SVG 1.1//EN" "http://www.w3.org/Graphics/SVG/1.1/DTD/svg11.dtd"><svg t="1583822846350" class="icon" viewBox="0 0 1024 1024" version="1.1" xmlns="http://www.w3.org/2000/svg" p-id="2152" xmlns:xlink="http://www.w3.org/1999/xlink" width="200" height="200"><defs><style type="text/css"></style></defs><path d="M1001.472 573.44c-25.6 270.336-266.24 468.992-536.576 442.368-46.08-4.096-91.136-15.36-134.144-32.768 83.968-13.312 164.864-45.056 190.464-113.664 59.392-157.696-138.24-196.608-138.24-196.608-19.456 59.392 78.848 138.24 78.848 138.24-38.912 19.456-138.24-19.456-138.24-19.456 3.072 39.936 10.24 79.872 19.456 117.76-57.344 0-133.12-73.728-138.24-78.848 11.264 27.648 14.336 58.368 8.192 87.04-217.088-163.84-259.072-473.088-95.232-689.152 16.384-21.504 34.816-41.984 54.272-61.44 6.144-9.216 98.304-144.384 308.224-163.84 0 0-7.168 12.288-18.432 31.744-43.008 76.8-138.24 272.384-59.392 380.928 92.16 129.024 286.72 188.416 344.064 35.84 10.24-25.6 8.192-54.272-6.144-76.8-13.312-22.528-44.032-39.936-99.328 4.096C542.72 457.728 522.24 418.816 542.72 320.512s0-196.608 0-216.064 19.456-38.912 38.912-19.456c13.312 17.408 19.456 37.888 19.456 59.392 23.552-27.648 49.152-55.296 75.776-79.872 22.528-21.504 46.08-37.888 60.416-37.888 19.456 0 5.12 28.672-14.336 58.368S678.912 143.36 678.912 143.36l8.192-1.024c86.016-10.24 171.008 26.624 222.208 96.256 71.68 96.256 103.424 216.064 92.16 334.848z" p-id="2153" fill="#d81e06"></path></svg>